<svg width="64" height="64" viewBox="0 0 64 64" fill="none" xmlns="http://www.w3.org/2000/svg">
<rect width="64" height="64" rx="20" fill="url(#paint0_linear_9_4)"/>
<g clip-path="url(#clip0_9_4)">
<rect x="4" y="4" width="56" height="56" rx="16" fill="black"/>
<path d="M32 15.3333C27 23.6667 18.6666 27 18.6666 35.3333C18.6666 38.6667 22 42 25.3333 42C27 42 28.6666 42 30.3333 40.3333C30.3333 40.3333 30.8666 43.6667 27 48.6667H37C33.6666 43.6667 33.6666 40.3333 33.6666 40.3333C35.3333 42 37 42 38.6666 42C42 42 45.3333 38.6667 45.3333 35.3333C45.3333 27 37 23.6667 32 15.3333Z" fill="url(#paint1_linear_9_4)"/>
</g>
<defs>
<linearGradient id="paint0_linear_9_4" x1="0.463769" y1="-0.927537" x2="64.4638" y2="63.5362" gradientUnits="userSpaceOnUse">
<stop offset="0.158558" stop-color="#7FEE64"/>
</linearGradient>
<linearGradient id="paint1_linear_9_4" x1="-19.6667" y1="-21.3333" x2="82" y2="83.6667" gradientUnits="userSpaceOnUse">
<stop offset="0.45023" stop-color="#7FEE64"/>
</linearGradient>
<clipPath id="clip0_9_4">
<rect x="4" y="4" width="56" height="56" rx="16" fill="white"/>
</clipPath>
</defs>
</svg>
